<?xml version="1.0" encoding="UTF-8" standalone="no"?>
<svg
   width="24"
   height="24"
   version="1.1"
   id="svg1"
   sodipodi:docname="icon.svg"
   xml:space="preserve"
   inkscape:version="1.4.1 (1:1.4.1+202503302257+93de688d07)"
   xmlns:inkscape="http://www.inkscape.org/namespaces/inkscape"
   xmlns:sodipodi="http://sodipodi.sourceforge.net/DTD/sodipodi-0.dtd"
   xmlns="http://www.w3.org/2000/svg"
   xmlns:svg="http://www.w3.org/2000/svg"><defs
     id="defs1" /><sodipodi:namedview
     id="namedview1"
     pagecolor="#505050"
     bordercolor="#ffffff"
     borderopacity="1"
     inkscape:showpageshadow="0"
     inkscape:pageopacity="0"
     inkscape:pagecheckerboard="1"
     inkscape:deskcolor="#d1d1d1"
     showgrid="false"
     inkscape:zoom="14.171875"
     inkscape:cx="5.6802646"
     inkscape:cy="13.300992"
     inkscape:window-width="1920"
     inkscape:window-height="1027"
     inkscape:window-x="0"
     inkscape:window-y="0"
     inkscape:window-maximized="1"
     inkscape:current-layer="svg1" /><path
     fill="#4593ec"
     d="m 6.3649394,0.72987872 h -3 a 2.5,2.5 0 0 0 0,4.99999998 0.5,0.5 0 0 1 0,1 H 0.36493936 v 2 H 3.3649394 a 2.5,2.5 0 0 0 0,-5 0.5,0.5 0 0 1 0,-1 h 3 z m 1,0 V 5.7298787 a 3,3 0 0 0 2.9999996,3 v -2 a 1,1 0 0 1 -0.9999996,-1 v -1 h 0.9999996 v -2 H 9.3649394 V 0.72987872 Z M 11.364939,8.7298787 h 2 v -3 a 1,1 0 0 1 1,-1 v -2 a 3,3 0 0 0 -3,3 z"
     id="path1" /><path
     fill="#e0e0e0"
     d="m 9.6180496,12.328418 a 1,1 0 0 0 -0.553,0.896 v 6 a 1,1 0 0 0 0.553,0.895 l 5.9999994,3 a 1,1 0 0 0 0.894,0 l 6,-3 a 1,1 0 0 0 0.553,-0.895 v -6 a 1,1 0 0 0 -0.553,-0.894 l -6,-3.0000007 a 1,1 0 0 0 -0.894,0 z m 6.4469994,-1 3.764,1.882 -3.764,1.882 -3.764,-1.882 z m -5,3.5 4,2 v 3.766 l -4,-2 z"
     id="path1-5" /><path
     fill="#e0e0e0"
     d="m 19.151621,2.9998793 c 3.160563,0 4.742806,3.7808202 2.508222,5.9919202 0,0 -0.865665,-0.798008 -0.836074,-0.8272871 1.489723,-1.4740665 0.434894,-3.9946133 -1.672148,-3.9946133 V 5.3399189 L 16.786727,3.5848892 19.151621,1.8298594 Z"
     id="path1-2"
     sodipodi:nodetypes="cssccccc"
     style="stroke-width:0.588108;fill:#d571be;fill-opacity:1" /><path
     fill="#e0e0e0"
     d="m 5.7346842,17.347689 c -3.160563,0 -4.74280601,-3.78082 -2.508222,-5.99192 0,0 0.865665,0.798008 0.836074,0.827287 -1.489723,1.474067 -0.434894,3.994614 1.672148,3.994614 v -1.17002 l 2.364894,1.75503 -2.364894,1.755029 z"
     id="path2"
     sodipodi:nodetypes="cssccccc"
     style="stroke-width:0.588108;fill:#d571be;fill-opacity:1" /></svg>
